#N canvas 305 323 450 300 10;
#X obj 157 113 leap.simple;
#X obj 154 72 metro 50;
#X obj 157 40 tgl 15 0 empty empty empty 17 7 0 10 -262144 -1 -1 1
1;
#X obj 87 197 nbx 5 14 -1e+37 1e+37 0 0 empty empty empty 0 -8 0 10
-262144 -1 -1 0 256;
#X obj 188 179 c.prepend set;
#X msg 189 223 -189.69 294.171 79.894;
#X obj 288 179 c.prepend set;
#X msg 289 223 -315.638 384.016 -60.0417;
#X connect 0 0 3 0;
#X connect 0 1 4 0;
#X connect 0 2 6 0;
#X connect 1 0 0 0;
#X connect 2 0 1 0;
#X connect 4 0 5 0;
#X connect 6 0 7 0;
