#N canvas 305 323 674 340 10;
#X obj 157 40 tgl 15 0 empty empty empty 17 7 0 10 -262144 -1 -1 0
1;
#X obj 87 197 nbx 5 14 -1e+37 1e+37 0 0 empty empty empty 0 -8 0 10
-262144 -1 -1 0 256;
#X obj 188 179 c.prepend set;
#X msg 189 223;
#X obj 288 179 c.prepend set;
#X msg 289 223 -315.638 384.016 -60.0417;
#X obj 157 113 leap.gesture;
#X obj 154 72 metro 10;
#X obj 232 259 print;
#X msg 269 67 circle \$1;
#X obj 270 39 c.toggle @size 15 15 @fontname Helvetica @fontweight
normal @fontslant roman @fontsize 11 @receive (null) @send (null) @presetname
(null) @bgcolor 0.75 0.75 0.75 1 @bdcolor 0.5 0.5 0.5 1 @crcolor 0.5
0.5 0.5 1;
#X msg 347 39 attrprint;
#X connect 0 0 7 0;
#X connect 2 0 3 0;
#X connect 4 0 5 0;
#X connect 6 0 1 0;
#X connect 6 1 2 0;
#X connect 6 1 8 0;
#X connect 6 2 4 0;
#X connect 7 0 6 0;
#X connect 9 0 6 0;
#X connect 10 0 9 0;
#X connect 11 0 6 0;
